<svg xmlns="http://www.w3.org/2000/svg" width="96" height="85.529">
    <script xmlns="" />
    <path
        d="M12.83 5.7h8.78V0h-8.78c-2.433 0-4.8.683-6.85 1.98l3.047 4.814A7.13 7.13 0 0 1 12.83 5.7m-7.126 7.127a7.09 7.09 0 0 1 .646-2.98L1.172 7.46A12.743 12.743 0 0 0 0 12.826V22.92h5.704V12.828zM0 28.68h5.704v14.37H0zm76.782-21.7a114.114 114.114 0 0 1 5.13-3.08 12.92 12.92 0 0 0-3.336-2.478A12.875 12.875 0 0 0 72.7 0h-5.047v5.7H72.7c1.495 0 2.905.45 4.082 1.28M0 48.81h5.704v14.397H0zM27.37 0h14.37v5.7H27.37zm20.127 0h14.396v5.7H47.497zm6.358 79.824h14.367v5.705H53.855zm25.972-47.437h5.7v14.398h-5.7zm0 20.155h5.7v14.372h-5.7zM5.704 72.7v-3.74H0v3.74c0 4.667 2.54 8.975 6.63 11.235l2.76-4.99a7.14 7.14 0 0 1-3.686-6.246m74.123-49.86v3.77h5.7v-8.46a82.825 82.825 0 0 0-5.7 4.69m0 49.861c0 3.574-2.667 6.613-6.203 7.07l.726 5.654a12.817 12.817 0 0 0 7.956-4.22 12.817 12.817 0 0 0 3.223-8.506v-.028h-5.71v.03zm-66.285 7.124H27.94v5.705H13.542zm20.154 0h14.4v5.705h-14.4z"
        fill="#2D2D2D" />
    <path fill="#AF2F2F"
        d="M13.06 45.396L39.802 72.14S66.548 20.687 95.465 9.146L94.38 1.002C78.633 7.246 54.734 23.675 37.088 48.79l-18.6-10.997-5.428 7.603z" />
</svg>